<svg width="1280" height="640" viewBox="0 0 1280 640" fill="none" xmlns="http://www.w3.org/2000/svg">
<path fill-rule="evenodd" clip-rule="evenodd" d="M727.1 71L825 169C829.5 173.5 832 179.6 832 185.9V192H704V64H710.1C716.5 64 722.6 66.5 727.1 71ZM544 427C544 412.1 558.5 400 576.4 400C594.3 400 608.9 412.1 608.9 427C608.9 441.9 594.4 454 576.5 454C558.6 454 544 442 544 427ZM672 64V200C672 213.2 682.8 224 696 224H832V552C832 565.3 821.3 576 808 576H472C458.7 576 448 565.3 448 552V88C448 74.7 458.7 64 472 64H576.4V96H608.4V64H672ZM575.9 96H543.9V128H575.9V96ZM524.8 417.1C518.2 449.6 543 480 576.2 480C609.2 480 634 449.8 627.6 417.4L610.3 329.7C609.2 324.1 604.2 320 598.5 320H576.4V288H608.4V256H576.4V224H608.4V192H576.4V160H608.4V128H576.4V160H544.4V192H576.4V224H544.4V256H576.4V288H544.4V320L524.8 417.1ZM704.898 549.715C704.33 550.567 704.596 551.411 705.697 552.245C707.437 553.559 709.274 554.509 711.209 555.095C713.145 555.698 715.657 556 718.746 556C720.841 556 722.989 555.725 725.191 555.174C727.41 554.642 729.425 553.452 731.236 551.606C733.047 549.742 733.952 547.389 733.952 544.549C733.952 542.631 733.642 540.98 733.02 539.595C732.417 538.21 731.644 537.118 730.703 536.32C729.762 535.521 728.404 534.722 726.629 533.923C725.35 533.355 723.957 532.84 722.448 532.378C720.939 531.899 719.225 531.348 717.308 530.727C716.686 530.532 716.074 530.292 715.47 530.008C714.867 529.706 714.316 529.262 713.819 528.676C713.322 528.073 713.074 527.292 713.074 526.333C713.074 525.339 713.411 524.504 714.086 523.83C714.76 523.155 715.532 522.729 716.402 522.551C717.29 522.374 718.258 522.285 719.305 522.285C720.779 522.285 722.19 522.613 723.54 523.27C724.907 523.927 725.981 524.522 726.762 525.055C727.987 525.889 728.963 525.809 729.691 524.815L731.848 521.912C732.417 521.149 732.141 520.296 731.023 519.356C729.887 518.397 728.2 517.598 725.963 516.959C723.744 516.32 721.587 516 719.492 516C717.379 516 715.284 516.249 713.207 516.746C711.129 517.243 709.292 518.37 707.694 520.128C706.096 521.885 705.297 523.998 705.297 526.466C705.297 528.543 705.635 530.203 706.309 531.446C706.984 532.689 707.934 533.807 709.159 534.802C710.384 535.796 711.733 536.577 713.207 537.145C714.858 537.784 716.527 538.335 718.213 538.796C719.918 539.24 721.329 539.693 722.448 540.154C723.087 540.421 723.708 540.749 724.312 541.14C724.915 541.53 725.35 542.028 725.617 542.631C725.883 543.235 726.016 543.936 726.016 544.735C726.016 545.854 725.714 546.821 725.111 547.638C724.507 548.454 723.628 549.005 722.474 549.289C721.32 549.573 720.122 549.715 718.879 549.715C717.104 549.715 715.408 549.351 713.793 548.623C712.195 547.878 710.899 547.158 709.904 546.466C708.608 545.561 707.623 545.614 706.948 546.626L704.898 549.715ZM677.068 552.591C676.837 553.372 677.192 554.038 678.133 554.589C679.749 555.53 681.915 556 684.631 556C688.52 556 691.556 555.041 693.739 553.124C695.941 551.189 697.042 546.954 697.042 540.421V518.903C697.042 517.571 696.42 516.905 695.177 516.905H691.129C689.887 516.905 689.265 517.571 689.265 518.903V540.953C689.265 544.096 688.963 546.342 688.36 547.691C687.774 549.04 686.505 549.715 684.552 549.715C683.131 549.715 681.844 549.351 680.69 548.623C679.341 547.789 678.506 547.895 678.187 548.943L677.068 552.591ZM738.107 536C738.107 529.875 739.687 525.01 742.847 521.406C746.007 517.802 750.517 516 756.376 516C762.235 516 766.744 517.802 769.904 521.406C773.065 525.01 774.645 529.875 774.645 536C774.645 542.125 773.065 546.99 769.904 550.594C766.744 554.198 762.235 556 756.376 556C750.517 556 746.007 554.198 742.847 550.594C739.687 546.99 738.107 542.125 738.107 536ZM746.416 536C746.416 540.439 747.206 543.838 748.786 546.2C750.384 548.543 752.914 549.715 756.376 549.715C759.838 549.715 762.359 548.543 763.939 546.2C765.537 543.838 766.336 540.439 766.336 536C766.336 531.561 765.537 528.17 763.939 525.827C762.359 523.466 759.838 522.285 756.376 522.285C752.914 522.285 750.384 523.466 748.786 525.827C747.206 528.17 746.416 531.561 746.416 536ZM781.196 553.097C781.196 554.429 781.817 555.095 783.06 555.095H787.108C788.351 555.095 788.972 554.429 788.972 553.097V534.216C788.972 533.15 788.928 532.085 788.839 531.02H789.026L802.874 553.23C803.655 554.473 804.809 555.095 806.336 555.095H810.011C811.254 555.095 811.875 554.429 811.875 553.097V518.903C811.875 517.571 811.254 516.905 810.011 516.905H805.963C804.72 516.905 804.099 517.571 804.099 518.903V537.385C804.099 538.45 804.143 539.515 804.232 540.581H804.046L790.464 518.77C789.682 517.527 788.528 516.905 787.002 516.905H783.06C781.817 516.905 781.196 517.571 781.196 518.903V553.097Z" fill="#602975"/>
</svg>
